<?xml version="1.0" encoding="UTF-8" standalone="no"?>
<svg
   height="300"
   preserveAspectRatio="xMidYMid"
   viewBox="0 0 375 224.99999"
   width="500"
   zoomAndPan="magnify"
   version="1.1"
   id="svg5"
   sodipodi:docname="logo_big.svg"
   inkscape:export-filename="logo_big.png"
   inkscape:export-xdpi="96"
   inkscape:export-ydpi="96"
   inkscape:version="1.4 (e7c3feb1, 2024-10-09)"
   xmlns:inkscape="http://www.inkscape.org/namespaces/inkscape"
   xmlns:sodipodi="http://sodipodi.sourceforge.net/DTD/sodipodi-0.dtd"
   xmlns="http://www.w3.org/2000/svg"
   xmlns:svg="http://www.w3.org/2000/svg">
  <defs
     id="defs5" />
  <sodipodi:namedview
     id="namedview5"
     pagecolor="#ffffff"
     bordercolor="#000000"
     borderopacity="0.25"
     inkscape:showpageshadow="2"
     inkscape:pageopacity="0.0"
     inkscape:pagecheckerboard="0"
     inkscape:deskcolor="#d1d1d1"
     inkscape:zoom="0.65664894"
     inkscape:cx="290.10935"
     inkscape:cy="239.85419"
     inkscape:window-width="1512"
     inkscape:window-height="846"
     inkscape:window-x="0"
     inkscape:window-y="38"
     inkscape:window-maximized="1"
     inkscape:current-layer="svg5" />
  <g
     fill="#ff3131"
     id="g5"
     transform="translate(0.78432563,-72.314093)">
    <path
       d="m 51.8125,-72 c 1.40625,0 2.539062,0.433594 3.40625,1.296875 0.863281,0.855469 1.296875,1.992187 1.296875,3.40625 v 42.03125 c 0,4.804687 -1.125,9.15625 -3.375,13.0625 -2.242187,3.898437 -5.28125,6.96875 -9.125,9.21875 C 40.171875,-0.742188 35.882812,0.375 31.15625,0.375 c -4.730469,0 -9.046875,-1.117188 -12.953125,-3.359375 -3.898437,-2.25 -6.953125,-5.320313 -9.171875,-9.21875 -2.210938,-3.90625 -3.3125,-8.257813 -3.3125,-13.0625 0,-4.789063 1.023438,-9.132813 3.078125,-13.03125 2.0625,-3.90625 4.890625,-6.960937 8.484375,-9.171875 3.59375,-2.21875 7.601562,-3.328125 12.03125,-3.328125 3.5625,0 6.878906,0.742187 9.953125,2.21875 3.070313,1.46875 5.6875,3.527344 7.84375,6.171875 v -24.890625 c 0,-1.414063 0.441406,-2.550781 1.328125,-3.40625 C 49.332031,-71.566406 50.457031,-72 51.8125,-72 Z M 31.15625,-7.921875 c 3.070312,0 5.851562,-0.75 8.34375,-2.25 2.488281,-1.507813 4.4375,-3.585937 5.84375,-6.234375 1.414062,-2.644531 2.125,-5.597656 2.125,-8.859375 0,-3.25 -0.710938,-6.179687 -2.125,-8.796875 C 43.9375,-36.675781 41.988281,-38.734375 39.5,-40.234375 37.007812,-41.742188 34.226562,-42.5 31.15625,-42.5 c -3.074219,0 -5.855469,0.757812 -8.34375,2.265625 -2.492188,1.5 -4.460938,3.558594 -5.90625,6.171875 -1.4375,2.617188 -2.15625,5.546875 -2.15625,8.796875 0,3.261719 0.71875,6.214844 2.15625,8.859375 1.445312,2.648438 3.414062,4.726562 5.90625,6.234375 2.488281,1.5 5.269531,2.25 8.34375,2.25 z m 0,0"
       transform="translate(35.038237,216.61808)"
       id="path1" />
    <path
       d="m 51.8125,-72 c 1.40625,0 2.539062,0.433594 3.40625,1.296875 0.863281,0.855469 1.296875,1.992187 1.296875,3.40625 v 42.03125 c 0,4.804687 -1.125,9.15625 -3.375,13.0625 -2.242187,3.898437 -5.28125,6.96875 -9.125,9.21875 C 40.171875,-0.742188 35.882812,0.375 31.15625,0.375 c -4.730469,0 -9.046875,-1.117188 -12.953125,-3.359375 -3.898437,-2.25 -6.953125,-5.320313 -9.171875,-9.21875 -2.210938,-3.90625 -3.3125,-8.257813 -3.3125,-13.0625 0,-4.789063 1.023438,-9.132813 3.078125,-13.03125 2.0625,-3.90625 4.890625,-6.960937 8.484375,-9.171875 3.59375,-2.21875 7.601562,-3.328125 12.03125,-3.328125 3.5625,0 6.878906,0.742187 9.953125,2.21875 3.070313,1.46875 5.6875,3.527344 7.84375,6.171875 v -24.890625 c 0,-1.414063 0.441406,-2.550781 1.328125,-3.40625 C 49.332031,-71.566406 50.457031,-72 51.8125,-72 Z M 31.15625,-7.921875 c 3.070312,0 5.851562,-0.75 8.34375,-2.25 2.488281,-1.507813 4.4375,-3.585937 5.84375,-6.234375 1.414062,-2.644531 2.125,-5.597656 2.125,-8.859375 0,-3.25 -0.710938,-6.179687 -2.125,-8.796875 C 43.9375,-36.675781 41.988281,-38.734375 39.5,-40.234375 37.007812,-41.742188 34.226562,-42.5 31.15625,-42.5 c -3.074219,0 -5.855469,0.757812 -8.34375,2.265625 -2.492188,1.5 -4.460938,3.558594 -5.90625,6.171875 -1.4375,2.617188 -2.15625,5.546875 -2.15625,8.796875 0,3.261719 0.71875,6.214844 2.15625,8.859375 1.445312,2.648438 3.414062,4.726562 5.90625,6.234375 2.488281,1.5 5.269531,2.25 8.34375,2.25 z m 0,0"
       transform="translate(99.846736,216.61808)"
       id="path2" />
    <path
       d="m 31.15625,-50.796875 c 4.726562,0 9.015625,1.125 12.859375,3.375 3.84375,2.242187 6.882813,5.3125 9.125,9.21875 2.25,3.898437 3.375,8.242187 3.375,13.03125 v 20.5625 c 0,1.355469 -0.449219,2.480469 -1.34375,3.375 -0.886719,0.886719 -2.007813,1.328125 -3.359375,1.328125 -1.355469,0 -2.480469,-0.441406 -3.375,-1.328125 -0.886719,-0.894531 -1.328125,-2.019531 -1.328125,-3.375 v -3.40625 c -2.15625,2.636719 -4.773437,4.695313 -7.84375,6.171875 C 36.191406,-0.363281 32.875,0.375 29.3125,0.375 c -4.429688,0 -8.4375,-1.101562 -12.03125,-3.3125 -3.59375,-2.21875 -6.421875,-5.273438 -8.484375,-9.171875 -2.054687,-3.90625 -3.078125,-8.257813 -3.078125,-13.0625 0,-4.789063 1.101562,-9.132813 3.3125,-13.03125 2.21875,-3.90625 5.273438,-6.976563 9.171875,-9.21875 3.90625,-2.25 8.222656,-3.375 12.953125,-3.375 z m 0,42.875 c 3.070312,0 5.851562,-0.75 8.34375,-2.25 2.488281,-1.507813 4.4375,-3.570313 5.84375,-6.1875 1.414062,-2.613281 2.125,-5.550781 2.125,-8.8125 0,-3.25 -0.710938,-6.195313 -2.125,-8.84375 C 43.9375,-36.660156 41.988281,-38.734375 39.5,-40.234375 37.007812,-41.742188 34.226562,-42.5 31.15625,-42.5 c -3.074219,0 -5.855469,0.757812 -8.34375,2.265625 -2.492188,1.5 -4.460938,3.574219 -5.90625,6.21875 -1.4375,2.648437 -2.15625,5.59375 -2.15625,8.84375 0,3.261719 0.71875,6.199219 2.15625,8.8125 1.445312,2.617187 3.414062,4.679687 5.90625,6.1875 2.488281,1.5 5.269531,2.25 8.34375,2.25 z m 0,0"
       transform="translate(164.65523,216.61808)"
       id="path3" />
    <path
       d="M 26.640625,0.375 C 22.460938,0.375 18.53125,-0.269531 14.84375,-1.5625 11.15625,-2.851562 8.265625,-4.546875 6.171875,-6.640625 5.378906,-7.429688 4.984375,-8.382812 4.984375,-9.5 c 0,-1.46875 0.613281,-2.664062 1.84375,-3.59375 1.164063,-0.851562 2.238281,-1.28125 3.21875,-1.28125 1.226563,0 2.394531,0.554688 3.5,1.65625 1.164063,1.292969 2.914063,2.417969 5.25,3.375 2.34375,0.949219 4.832031,1.421875 7.46875,1.421875 3.507813,0 6.226563,-0.582031 8.15625,-1.75 1.9375,-1.175781 2.90625,-2.742187 2.90625,-4.703125 0,-1.90625 -0.953125,-3.488281 -2.859375,-4.75 -1.898438,-1.257812 -5.121094,-2.320312 -9.671875,-3.1875 C 12.992188,-24.582031 7.09375,-29.4375 7.09375,-36.875 c 0,-3.007812 0.890625,-5.554688 2.671875,-7.640625 1.78125,-2.09375 4.113281,-3.660156 7,-4.703125 2.894531,-1.050781 5.972656,-1.578125 9.234375,-1.578125 3.988281,0 7.566406,0.648437 10.734375,1.9375 3.164063,1.292969 5.671875,3.074219 7.515625,5.34375 0.800781,0.992187 1.203125,1.976563 1.203125,2.953125 0,1.042969 -0.527344,1.996094 -1.578125,2.859375 -0.679688,0.492187 -1.539062,0.734375 -2.578125,0.734375 -1.59375,0 -3.039063,-0.582031 -4.328125,-1.75 -1.542969,-1.414062 -3.171875,-2.414062 -4.890625,-3 -1.71875,-0.582031 -3.808594,-0.875 -6.265625,-0.875 -2.824219,0 -5.148438,0.480469 -6.96875,1.4375 -1.8125,0.949219 -2.71875,2.28125 -2.71875,4 0,1.230469 0.304688,2.261719 0.921875,3.09375 0.613281,0.835938 1.78125,1.605469 3.5,2.3125 1.726563,0.699219 4.222656,1.386719 7.484375,2.0625 6.695312,1.355469 11.441406,3.230469 14.234375,5.625 2.800781,2.398438 4.203125,5.5 4.203125,9.3125 0,2.824219 -0.773438,5.390625 -2.3125,7.703125 -1.53125,2.304687 -3.792969,4.117187 -6.78125,5.4375 C 34.394531,-0.285156 30.816406,0.375 26.640625,0.375 Z m 0,0"
       transform="translate(226.88245,216.61808)"
       id="path4" />
    <path
       d="m 33.375,-50.890625 c 4.238281,0 8.046875,0.921875 11.421875,2.765625 3.382813,1.84375 6.03125,4.539062 7.9375,8.078125 1.90625,3.53125 2.859375,7.789063 2.859375,12.765625 v 22.671875 c 0,1.355469 -0.449219,2.480469 -1.34375,3.375 -0.886719,0.886719 -2.007812,1.328125 -3.359375,1.328125 -1.355469,0 -2.480469,-0.441406 -3.375,-1.328125 -0.886719,-0.894531 -1.328125,-2.019531 -1.328125,-3.375 V -27.28125 c 0,-4.976562 -1.339844,-8.742188 -4.015625,-11.296875 -2.667969,-2.550781 -6.214844,-3.828125 -10.640625,-3.828125 -2.585938,0 -4.9375,0.527344 -7.0625,1.578125 -2.117188,1.042969 -3.773438,2.453125 -4.96875,4.234375 -1.199219,1.78125 -1.796875,3.777344 -1.796875,5.984375 v 26 c 0,1.355469 -0.433594,2.480469 -1.296875,3.375 C 15.550781,-0.347656 14.414062,0.09375 13,0.09375 c -1.355469,0 -2.480469,-0.441406 -3.375,-1.328125 -0.886719,-0.894531 -1.328125,-2.019531 -1.328125,-3.375 v -62.6875 c 0,-1.414063 0.441406,-2.550781 1.328125,-3.40625 C 10.519531,-71.566406 11.644531,-72 13,-72 c 1.414062,0 2.550781,0.433594 3.40625,1.296875 0.863281,0.855469 1.296875,1.992187 1.296875,3.40625 v 22.59375 c 1.96875,-1.96875 4.300781,-3.488281 7,-4.5625 2.707031,-1.082031 5.597656,-1.625 8.671875,-1.625 z m 0,0"
       transform="translate(276.94079,216.61808)"
       id="path5" />
  </g>
</svg>
