<svg height="500" preserveAspectRatio="xMidYMid meet" viewBox="0 0 375 374.999991" width="500" xmlns="http://www.w3.org/2000/svg" zoomAndPan="magnify"><g fill="#ff3131"><path d="m51.8125-72c1.40625 0 2.539062.433594 3.40625 1.296875.863281.855469 1.296875 1.992187 1.296875 3.40625v42.03125c0 4.804687-1.125 9.15625-3.375 13.0625-2.242187 3.898437-5.28125 6.96875-9.125 9.21875-3.84375 2.242187-8.132813 3.359375-12.859375 3.359375-4.730469 0-9.046875-1.117188-12.953125-3.359375-3.898437-2.25-6.953125-5.320313-9.171875-9.21875-2.210938-3.90625-3.3125-8.257813-3.3125-13.0625 0-4.789063 1.023438-9.132813 3.078125-13.03125 2.0625-3.90625 4.890625-6.960937 8.484375-9.171875 3.59375-2.21875 7.601562-3.328125 12.03125-3.328125 3.5625 0 6.878906.742187 9.953125 2.21875 3.070313 1.46875 5.6875 3.527344 7.84375 6.171875v-24.890625c0-1.414063.441406-2.550781 1.328125-3.40625.894531-.863281 2.019531-1.296875 3.375-1.296875zm-20.65625 64.078125c3.070312 0 5.851562-.75 8.34375-2.25 2.488281-1.507813 4.4375-3.585937 5.84375-6.234375 1.414062-2.644531 2.125-5.597656 2.125-8.859375 0-3.25-.710938-6.179687-2.125-8.796875-1.40625-2.613281-3.355469-4.671875-5.84375-6.171875-2.492188-1.507813-5.273438-2.265625-8.34375-2.265625-3.074219 0-5.855469.757812-8.34375 2.265625-2.492188 1.5-4.460938 3.558594-5.90625 6.171875-1.4375 2.617188-2.15625 5.546875-2.15625 8.796875 0 3.261719.71875 6.214844 2.15625 8.859375 1.445312 2.648438 3.414062 4.726562 5.90625 6.234375 2.488281 1.5 5.269531 2.25 8.34375 2.25zm0 0" transform="translate(35.038237 216.618077)"/><path d="m51.8125-72c1.40625 0 2.539062.433594 3.40625 1.296875.863281.855469 1.296875 1.992187 1.296875 3.40625v42.03125c0 4.804687-1.125 9.15625-3.375 13.0625-2.242187 3.898437-5.28125 6.96875-9.125 9.21875-3.84375 2.242187-8.132813 3.359375-12.859375 3.359375-4.730469 0-9.046875-1.117188-12.953125-3.359375-3.898437-2.25-6.953125-5.320313-9.171875-9.21875-2.210938-3.90625-3.3125-8.257813-3.3125-13.0625 0-4.789063 1.023438-9.132813 3.078125-13.03125 2.0625-3.90625 4.890625-6.960937 8.484375-9.171875 3.59375-2.21875 7.601562-3.328125 12.03125-3.328125 3.5625 0 6.878906.742187 9.953125 2.21875 3.070313 1.46875 5.6875 3.527344 7.84375 6.171875v-24.890625c0-1.414063.441406-2.550781 1.328125-3.40625.894531-.863281 2.019531-1.296875 3.375-1.296875zm-20.65625 64.078125c3.070312 0 5.851562-.75 8.34375-2.25 2.488281-1.507813 4.4375-3.585937 5.84375-6.234375 1.414062-2.644531 2.125-5.597656 2.125-8.859375 0-3.25-.710938-6.179687-2.125-8.796875-1.40625-2.613281-3.355469-4.671875-5.84375-6.171875-2.492188-1.507813-5.273438-2.265625-8.34375-2.265625-3.074219 0-5.855469.757812-8.34375 2.265625-2.492188 1.5-4.460938 3.558594-5.90625 6.171875-1.4375 2.617188-2.15625 5.546875-2.15625 8.796875 0 3.261719.71875 6.214844 2.15625 8.859375 1.445312 2.648438 3.414062 4.726562 5.90625 6.234375 2.488281 1.5 5.269531 2.25 8.34375 2.25zm0 0" transform="translate(99.846736 216.618077)"/><path d="m31.15625-50.796875c4.726562 0 9.015625 1.125 12.859375 3.375 3.84375 2.242187 6.882813 5.3125 9.125 9.21875 2.25 3.898437 3.375 8.242187 3.375 13.03125v20.5625c0 1.355469-.449219 2.480469-1.34375 3.375-.886719.886719-2.007813 1.328125-3.359375 1.328125-1.355469 0-2.480469-.441406-3.375-1.328125-.886719-.894531-1.328125-2.019531-1.328125-3.375v-3.40625c-2.15625 2.636719-4.773437 4.695313-7.84375 6.171875-3.074219 1.480469-6.390625 2.21875-9.953125 2.21875-4.429688 0-8.4375-1.101562-12.03125-3.3125-3.59375-2.21875-6.421875-5.273438-8.484375-9.171875-2.054687-3.90625-3.078125-8.257813-3.078125-13.0625 0-4.789063 1.101562-9.132813 3.3125-13.03125 2.21875-3.90625 5.273438-6.976563 9.171875-9.21875 3.90625-2.25 8.222656-3.375 12.953125-3.375zm0 42.875c3.070312 0 5.851562-.75 8.34375-2.25 2.488281-1.507813 4.4375-3.570313 5.84375-6.1875 1.414062-2.613281 2.125-5.550781 2.125-8.8125 0-3.25-.710938-6.195313-2.125-8.84375-1.40625-2.644531-3.355469-4.71875-5.84375-6.21875-2.492188-1.507813-5.273438-2.265625-8.34375-2.265625-3.074219 0-5.855469.757812-8.34375 2.265625-2.492188 1.5-4.460938 3.574219-5.90625 6.21875-1.4375 2.648437-2.15625 5.59375-2.15625 8.84375 0 3.261719.71875 6.199219 2.15625 8.8125 1.445312 2.617187 3.414062 4.679687 5.90625 6.1875 2.488281 1.5 5.269531 2.25 8.34375 2.25zm0 0" transform="translate(164.655234 216.618077)"/><path d="m26.640625.375c-4.179687 0-8.109375-.644531-11.796875-1.9375-3.6875-1.289062-6.578125-2.984375-8.671875-5.078125-.792969-.789063-1.1875-1.742187-1.1875-2.859375 0-1.46875.613281-2.664062 1.84375-3.59375 1.164063-.851562 2.238281-1.28125 3.21875-1.28125 1.226563 0 2.394531.554688 3.5 1.65625 1.164063 1.292969 2.914063 2.417969 5.25 3.375 2.34375.949219 4.832031 1.421875 7.46875 1.421875 3.507813 0 6.226563-.582031 8.15625-1.75 1.9375-1.175781 2.90625-2.742187 2.90625-4.703125 0-1.90625-.953125-3.488281-2.859375-4.75-1.898438-1.257812-5.121094-2.320312-9.671875-3.1875-11.804687-2.269531-17.703125-7.125-17.703125-14.5625 0-3.007812.890625-5.554688 2.671875-7.640625 1.78125-2.09375 4.113281-3.660156 7-4.703125 2.894531-1.050781 5.972656-1.578125 9.234375-1.578125 3.988281 0 7.566406.648437 10.734375 1.9375 3.164063 1.292969 5.671875 3.074219 7.515625 5.34375.800781.992187 1.203125 1.976563 1.203125 2.953125 0 1.042969-.527344 1.996094-1.578125 2.859375-.679688.492187-1.539062.734375-2.578125.734375-1.59375 0-3.039063-.582031-4.328125-1.75-1.542969-1.414062-3.171875-2.414062-4.890625-3-1.71875-.582031-3.808594-.875-6.265625-.875-2.824219 0-5.148438.480469-6.96875 1.4375-1.8125.949219-2.71875 2.28125-2.71875 4 0 1.230469.304688 2.261719.921875 3.09375.613281.835938 1.78125 1.605469 3.5 2.3125 1.726563.699219 4.222656 1.386719 7.484375 2.0625 6.695312 1.355469 11.441406 3.230469 14.234375 5.625 2.800781 2.398438 4.203125 5.5 4.203125 9.3125 0 2.824219-.773438 5.390625-2.3125 7.703125-1.53125 2.304687-3.792969 4.117187-6.78125 5.4375-2.980469 1.324219-6.558594 1.984375-10.734375 1.984375zm0 0" transform="translate(226.882448 216.618077)"/><path d="m33.375-50.890625c4.238281 0 8.046875.921875 11.421875 2.765625 3.382813 1.84375 6.03125 4.539062 7.9375 8.078125 1.90625 3.53125 2.859375 7.789063 2.859375 12.765625v22.671875c0 1.355469-.449219 2.480469-1.34375 3.375-.886719.886719-2.007812 1.328125-3.359375 1.328125-1.355469 0-2.480469-.441406-3.375-1.328125-.886719-.894531-1.328125-2.019531-1.328125-3.375v-22.671875c0-4.976562-1.339844-8.742188-4.015625-11.296875-2.667969-2.550781-6.214844-3.828125-10.640625-3.828125-2.585938 0-4.9375.527344-7.0625 1.578125-2.117188 1.042969-3.773438 2.453125-4.96875 4.234375-1.199219 1.78125-1.796875 3.777344-1.796875 5.984375v26c0 1.355469-.433594 2.480469-1.296875 3.375-.855469.886719-1.992188 1.328125-3.40625 1.328125-1.355469 0-2.480469-.441406-3.375-1.328125-.886719-.894531-1.328125-2.019531-1.328125-3.375v-62.6875c0-1.414063.441406-2.550781 1.328125-3.40625.894531-.863281 2.019531-1.296875 3.375-1.296875 1.414062 0 2.550781.433594 3.40625 1.296875.863281.855469 1.296875 1.992187 1.296875 3.40625v22.59375c1.96875-1.96875 4.300781-3.488281 7-4.5625 2.707031-1.082031 5.597656-1.625 8.671875-1.625zm0 0" transform="translate(276.94079 216.618077)"/></g></svg>